# xmcd
#
# Track frame offsets: 
#        150
#        15905
#        29184
#        41123
#        55806
#        69854
#        86497
#        100050
#        110230
#        124728
#
# Disc length: 1876 seconds
#
# Revision: 0
# Processed by: cddbd v1.5.2PL0 Copyright (c) Steve Scherf et al.
# Submitted via: ExactAudioCopyFreeDBPlugin 1.0
#
DISCID=8107520a
DTITLE=Various Artist - Boot Scootin' Saturday Night
DYEAR=2005
DGENRE=Country
TTITLE0=T. Graham Brown - Tennessee Hideaway
TTITLE1=Billy Joe Royal - Hush
TTITLE2=T. Graham Brown - Still Not Out Of The Woods
TTITLE3=Lynn Anderson - Rose Garden
TTITLE4=T. Graham Brown - Monkey
TTITLE5=Gene Watson - Smithereens
TTITLE6=Mel McDaniel - Baby's Got Her Blue Jeans On
TTITLE7=Mel McDaniel - Louisiana Saturday Night
TTITLE8=Exile - Woke Up In Love
TTITLE9=Gene Watson - New Woman
EXTD=
EXTT0=
EXTT1=
EXTT2=
EXTT3=
EXTT4=
EXTT5=
EXTT6=
EXTT7=
EXTT8=
EXTT9=
PLAYORDER=
